<svg id="Слой_1" data-name="Слой 1" xmlns="http://www.w3.org/2000/svg" width="18.16" height="18.16" viewBox="0 0 18.16 18.16">
  <defs>
    <style>
      .cls-1 {
        fill: #666262;
      }
    </style>
  </defs>
  <title>rss-black</title>
  <path class="cls-1" d="M2.7,512a2.7,2.7,0,0,0,0-5.39,2.7,2.7,0,1,0,0,5.39Z" transform="translate(0 -493.84)"/>
  <path class="cls-1" d="M8.58,511.47c0,.18,0,.35,0,.53h3.19c0-.18,0-.35,0-.53A11.32,11.32,0,0,0,.53,500.22c-.18,0-.35,0-.53,0v3.19l.53,0A8.11,8.11,0,0,1,8.58,511.47Z" transform="translate(0 -493.84)"/>
  <path class="cls-1" d="M.53,493.84c-.18,0-.35,0-.53,0v3.19c.18,0,.35,0,.53,0A14.51,14.51,0,0,1,15,511.47c0,.18,0,.35,0,.53h3.19c0-.18,0-.35,0-.53A17.68,17.68,0,0,0,.53,493.84Z" transform="translate(0 -493.84)"/>
</svg>
