<svg id="Layer_1" data-name="Layer 1" xmlns="http://www.w3.org/2000/svg" width="20.06" height="15.01" viewBox="0 0 20.06 15.01">
  <defs>
    <style>
      .cls-1 {
        fill: #666262;
      }
    </style>
  </defs>
  <title>twitter-black</title>
  <path class="cls-1" d="M19.55,1.73a6.85,6.85,0,0,1-1,.32,3.71,3.71,0,0,0,.87-1.4.28.28,0,0,0-.11-.32.33.33,0,0,0-.36,0,8.19,8.19,0,0,1-2.25.81A4.59,4.59,0,0,0,13.7,0,4.11,4.11,0,0,0,9.41,4a4.34,4.34,0,0,0,0,.51A11.32,11.32,0,0,1,1.87.79a.36.36,0,0,0-.28-.1.32.32,0,0,0-.25.14,3.75,3.75,0,0,0,.42,4.55,2.87,2.87,0,0,1-.57-.24.36.36,0,0,0-.32,0,.26.26,0,0,0-.16.25h0a3.89,3.89,0,0,0,2.1,3.38H2.48a.33.33,0,0,0-.3.09.29.29,0,0,0-.07.29,4.16,4.16,0,0,0,3.15,2.63A8.06,8.06,0,0,1,1.2,12.85c-.3,0-.61,0-.91,0A.31.31,0,0,0,0,13a.28.28,0,0,0,.13.35A12.29,12.29,0,0,0,6.34,15,11.61,11.61,0,0,0,15,11.5a10.51,10.51,0,0,0,3-7.17V4a8.08,8.08,0,0,0,1.92-1.86.27.27,0,0,0,0-.36A.34.34,0,0,0,19.55,1.73Z" transform="translate(0.07 -0.02)"/>
</svg>
