<svg id="Layer_1" data-name="Layer 1" xmlns="http://www.w3.org/2000/svg" width="20" height="15" viewBox="0 0 20 15">
  <defs>
    <style>
      .cls-1 {
        fill: #fff;
      }
    </style>
  </defs>
  <title>twitter</title>
  <path class="cls-1" d="M164.55,149.23a6.88,6.88,0,0,1-1,.32,3.79,3.79,0,0,0,.87-1.4.28.28,0,0,0-.11-.32.32.32,0,0,0-.36,0,8.07,8.07,0,0,1-2.25.81,4.57,4.57,0,0,0-3-1.12,4.12,4.12,0,0,0-4.29,3.93,4.36,4.36,0,0,0,0,.51,11.33,11.33,0,0,1-7.54-3.67.35.35,0,0,0-.28-.1.31.31,0,0,0-.25.14,3.69,3.69,0,0,0-.58,2,3.74,3.74,0,0,0,1,2.55,2.87,2.87,0,0,1-.57-.24.36.36,0,0,0-.32,0,.27.27,0,0,0-.16.25v0a3.89,3.89,0,0,0,2.1,3.38l-.33,0a.32.32,0,0,0-.3.09.29.29,0,0,0-.07.29,4.17,4.17,0,0,0,3.15,2.63,8.1,8.1,0,0,1-4.06,1.07,9.08,9.08,0,0,1-.91-.05.31.31,0,0,0-.34.19.28.28,0,0,0,.13.35,12.33,12.33,0,0,0,6.26,1.68A11.61,11.61,0,0,0,160,159a10.51,10.51,0,0,0,3-7.17c0-.11,0-.22,0-.33a7.9,7.9,0,0,0,1.92-1.86.27.27,0,0,0,0-.36A.34.34,0,0,0,164.55,149.23Z" transform="translate(-145 -147.5)"/>
</svg>
