<svg xmlns="http://www.w3.org/2000/svg" width="18.19" height="22.563" viewBox="0 0 18.19 22.563">
  <defs>
    <style>
      .cls-1 {
        fill: #ded6c7;
        fill-rule: evenodd;
      }
    </style>
  </defs>
  <path id="Эллипс_1" data-name="Эллипс 1" class="cls-1" d="M1345.16,144a8.16,8.16,0,1,1-8.16,8.16A8.158,8.158,0,0,1,1345.16,144Zm0.02,1.646a6.532,6.532,0,1,1-6.53,6.531A6.535,6.535,0,0,1,1345.18,145.646Zm4.22,12.86a2.442,2.442,0,0,1,3.35.854l2.09,3.508a2.449,2.449,0,1,1-4.21,2.5l-2.09-3.508A2.454,2.454,0,0,1,1349.4,158.506Z" transform="translate(-1337 -144)"/>
</svg>
